<svg width="150" height="74" viewBox="0 0 150 74" fill="none" xmlns="http://www.w3.org/2000/svg">
<g clip-path="url(#clip0_140_443)">
<path d="M135.49 73.56H0V14.87L14.29 0H150V58.76L135.49 73.56ZM2.86 70.71H134.29L147.14 57.6V2.86H15.51L2.86 16V70.71Z" fill="black"/>
<path d="M46 23.9V41.16H42.51V23.9H46Z" fill="black"/>
<path d="M60.37 29.51V41.18C60.37 44.8 57.55 47.02 54.11 47.02C50.67 47.02 48.29 45 48.05 42H51.55C51.69 43.23 52.78 43.79 54.23 43.79C54.5827 43.8207 54.9378 43.7737 55.2703 43.6522C55.6028 43.5308 55.9046 43.3378 56.1544 43.0871C56.4042 42.8363 56.596 42.5337 56.7162 42.2008C56.8364 41.8678 56.8821 41.5125 56.85 41.16V39.74C55.8537 40.3558 54.7011 40.6717 53.53 40.65C52.0254 40.661 50.5765 40.0819 49.494 39.0368C48.4115 37.9918 47.7818 36.564 47.74 35.06C47.7151 34.292 47.8477 33.527 48.1296 32.8122C48.4115 32.0973 48.8368 31.4478 49.3792 30.9035C49.9216 30.3592 50.5697 29.9317 51.2836 29.6473C51.9974 29.363 52.7619 29.2278 53.53 29.25C54.7005 29.2328 55.8519 29.5483 56.85 30.16V29.54L60.37 29.51ZM56.85 36.39V33.54C56.5561 33.0964 56.1539 32.735 55.6815 32.49C55.2091 32.245 54.682 32.1246 54.15 32.14C53.7613 32.1181 53.3723 32.1788 53.0087 32.3179C52.6451 32.4571 52.315 32.6716 52.0402 32.9474C51.7653 33.2232 51.5519 33.554 51.414 33.9181C51.2761 34.2822 51.2168 34.6713 51.24 35.06C51.2837 35.7983 51.6108 36.4912 52.1529 36.9942C52.6951 37.4973 53.4105 37.7716 54.15 37.76C54.6811 37.7916 55.2111 37.6813 55.6855 37.4406C56.16 37.1998 56.5619 36.8373 56.85 36.39Z" fill="black"/>
<path d="M74.41 35.2C74.4179 36.4367 74.0582 37.6478 73.3765 38.6797C72.6948 39.7115 71.7218 40.5175 70.5812 40.9954C69.4405 41.4732 68.1836 41.6013 66.97 41.3635C65.7563 41.1256 64.6408 40.5325 63.7649 39.6594C62.889 38.7863 62.2923 37.6727 62.0505 36.4598C61.8088 35.247 61.9328 33.9897 62.407 32.8475C62.8812 31.7053 63.684 30.7298 64.7137 30.0447C65.7433 29.3597 66.9533 28.9961 68.19 29C69.0134 28.9693 69.8342 29.1085 70.6014 29.409C71.3686 29.7094 72.0657 30.1647 72.6493 30.7464C73.2328 31.328 73.6903 32.0237 73.9932 32.7899C74.2962 33.5561 74.438 34.3765 74.41 35.2ZM71.01 35.2C71.033 34.8135 70.9767 34.4265 70.8446 34.0626C70.7125 33.6986 70.5074 33.3656 70.2419 33.0838C69.9764 32.8021 69.6561 32.5776 69.3006 32.4241C68.9452 32.2707 68.5621 32.1915 68.175 32.1915C67.7879 32.1915 67.4048 32.2707 67.0494 32.4241C66.6939 32.5776 66.3736 32.8021 66.1081 33.0838C65.8426 33.3656 65.6375 33.6986 65.5054 34.0626C65.3733 34.4265 65.317 34.8135 65.34 35.2C65.317 35.5865 65.3733 35.9735 65.5054 36.3374C65.6375 36.7014 65.8426 37.0344 66.1081 37.3162C66.3736 37.5979 66.6939 37.8224 67.0494 37.9759C67.4048 38.1293 67.7879 38.2084 68.175 38.2084C68.5621 38.2084 68.9452 38.1293 69.3006 37.9759C69.6561 37.8224 69.9764 37.5979 70.2419 37.3162C70.5074 37.0344 70.7125 36.7014 70.8446 36.3374C70.9767 35.9735 71.033 35.5865 71.01 35.2Z" fill="black"/>
<path d="M96.25 29.54V41.14H92.81V40.49C91.8128 41.1156 90.6571 41.4418 89.48 41.43C87.9252 41.3409 86.4633 40.6604 85.3941 39.5281C84.3248 38.3958 83.7291 36.8974 83.7291 35.34C83.7291 33.7826 84.3248 32.2842 85.3941 31.1519C86.4633 30.0196 87.9252 29.3391 89.48 29.25C90.6571 29.2382 91.8128 29.5644 92.81 30.19V29.54H96.25ZM92.78 37.13V33.59C92.4721 33.1459 92.0538 32.7897 91.5663 32.5565C91.0788 32.3232 90.539 32.2211 90 32.26C89.1778 32.26 88.3893 32.5866 87.808 33.168C87.2266 33.7493 86.9 34.5378 86.9 35.36C86.9 36.1822 87.2266 36.9707 87.808 37.552C88.3893 38.1334 89.1778 38.46 90 38.46C90.539 38.499 91.0788 38.3968 91.5663 38.1636C92.0538 37.9303 92.4721 37.5741 92.78 37.13Z" fill="black"/>
<path d="M110.43 34.87V41.16H107V35.28C107 33.37 106.06 32.38 104.37 32.38C103.846 32.4226 103.338 32.5756 102.878 32.829C102.417 33.0824 102.016 33.4303 101.7 33.85V41.16H98.26V29.56H101.73V30.43C102.677 29.6644 103.862 29.254 105.08 29.27C108.17 29.27 110.43 31.44 110.43 34.87Z" fill="black"/>
<path d="M128 24.33H127.13V26.38H126.63V24.33H125.76V23.87H128V24.33Z" fill="black"/>
<path d="M131 26.4H130.5V25L129.84 26H129.53L128.81 25V26.42H128.3V23.87H128.66L129.66 25.39L130.66 23.87H131V26.4Z" fill="black"/>
<path d="M40.89 41.14H37.32L35 32.48L30 41.14H26L33.74 27.73L32.48 23.05L22 41.14H18L31.25 18.21H34.77L36.29 23.92H39.9L37.44 28.21L40.89 41.14Z" fill="black"/>
<path d="M124.44 23.9V41.16H120.92V40.51C119.923 41.1371 118.767 41.4635 117.59 41.45C116.035 41.3609 114.573 40.6804 113.504 39.5481C112.435 38.4158 111.839 36.9174 111.839 35.36C111.839 33.8026 112.435 32.3042 113.504 31.1719C114.573 30.0396 116.035 29.3591 117.59 29.27C118.767 29.2565 119.923 29.5829 120.92 30.21V23.9H124.44ZM120.92 37.13V33.56C120.608 33.1235 120.19 32.7734 119.705 32.5425C119.221 32.3116 118.686 32.2075 118.15 32.24C117.322 32.24 116.529 32.5687 115.944 33.1538C115.359 33.7389 115.03 34.5325 115.03 35.36C115.03 36.1875 115.359 36.9811 115.944 37.5662C116.529 38.1513 117.322 38.48 118.15 38.48C118.689 38.5101 119.226 38.4018 119.711 38.1655C120.196 37.9292 120.612 37.5727 120.92 37.13Z" fill="black"/>
<path d="M83 32.48C82.315 32.4822 81.6383 32.6295 81.0143 32.9122C80.3904 33.1949 79.8334 33.6065 79.38 34.12V41.12H76V29.59H79.47V30.45C79.9676 30.0699 80.5364 29.7935 81.1428 29.6372C81.7491 29.4809 82.3807 29.4478 83 29.54V32.48Z" fill="black"/>
<path d="M67.56 53V47.35H71.07V48.15H68.4V49.7H70.12V50.5H68.4V53H67.56Z" fill="black"/>
<path d="M75.93 53C75.6104 53.1196 75.2711 53.1773 74.93 53.17C74.6122 53.1709 74.2969 53.1132 74 53C73.7332 52.899 73.4911 52.7422 73.29 52.54C73.102 52.3426 72.9467 52.1164 72.83 51.87C72.7118 51.6171 72.6213 51.3523 72.56 51.08C72.4533 50.5251 72.4533 49.9549 72.56 49.4C72.6215 49.1246 72.712 48.8564 72.83 48.6C72.9492 48.355 73.1042 48.1292 73.29 47.93C73.4921 47.7314 73.7341 47.578 74 47.48C74.3174 47.3527 74.6583 47.2948 75 47.31C75.3414 47.2974 75.6818 47.3553 76 47.48C76.2634 47.577 76.5023 47.7306 76.7 47.93C76.889 48.1266 77.0444 48.353 77.16 48.6C77.2873 48.8526 77.3781 49.1219 77.43 49.4C77.5366 49.9549 77.5366 50.5251 77.43 51.08C77.3772 51.3546 77.2864 51.6205 77.16 51.87C77.0469 52.1184 76.8912 52.3452 76.7 52.54C76.4828 52.7514 76.2191 52.9089 75.93 53ZM74.23 52.17C74.4539 52.3017 74.7104 52.3676 74.97 52.36C75.2335 52.3627 75.4928 52.2936 75.72 52.16C75.9275 52.0312 76.0994 51.8524 76.22 51.64C76.34 51.4275 76.4277 51.1983 76.48 50.96C76.5406 50.7248 76.5709 50.4829 76.57 50.24C76.5709 49.9873 76.5406 49.7354 76.48 49.49C76.4293 49.2512 76.3416 49.0217 76.22 48.81C76.1015 48.6013 75.9287 48.4285 75.72 48.31C75.492 48.1794 75.2326 48.1137 74.97 48.12C74.7088 48.1108 74.4509 48.1805 74.23 48.32C74.0158 48.4404 73.8419 48.6213 73.73 48.84C73.6111 49.0506 73.5204 49.2758 73.46 49.51C73.4082 49.7499 73.3813 49.9946 73.38 50.24C73.3808 50.4921 73.4076 50.7434 73.46 50.99C73.5185 51.2248 73.6094 51.4503 73.73 51.66C73.8526 51.8553 74.0252 52.0141 74.23 52.12V52.17Z" fill="black"/>
<path d="M81.65 53.12C81.3552 53.1415 81.0593 53.0973 80.7836 52.9907C80.5079 52.8841 80.2592 52.7177 80.0555 52.5035C79.8518 52.2892 79.6982 52.0325 79.6056 51.7518C79.513 51.4711 79.4837 51.1734 79.52 50.88V47.35H80.36V50.88C80.3398 51.0799 80.3595 51.2818 80.4179 51.474C80.4762 51.6663 80.5721 51.8451 80.7 52C80.9732 52.2076 81.3069 52.32 81.65 52.32C81.9931 52.32 82.3268 52.2076 82.6 52C82.741 51.8515 82.8494 51.6751 82.9183 51.4823C82.9872 51.2894 83.015 51.0843 83 50.88V47.35H83.84V50.88C83.8765 51.1743 83.847 51.473 83.7539 51.7545C83.6607 52.0359 83.5061 52.2932 83.3013 52.5076C83.0965 52.722 82.8465 52.8882 82.5696 52.9941C82.2926 53.1 81.9956 53.143 81.7 53.12H81.65Z" fill="black"/>
<path d="M90.36 53H89.57L87.11 49.16C87.0284 49.0245 86.9549 48.8842 86.89 48.74C86.89 48.99 86.89 49.13 86.89 49.16V53H86.05V47.35H86.9L89.29 51.14C89.3759 51.2782 89.4528 51.4218 89.52 51.57C89.52 51.41 89.52 51.27 89.52 51.14V47.35H90.36V53Z" fill="black"/>
<path d="M92.68 47.35H94.27C94.6998 47.3428 95.126 47.4281 95.52 47.6C95.8531 47.7423 96.1454 47.9658 96.37 48.25C96.57 48.5237 96.7253 48.8275 96.83 49.15C96.9243 49.4749 96.9715 49.8117 96.97 50.15C96.9747 50.4885 96.9275 50.8258 96.83 51.15C96.7326 51.4717 96.584 51.7756 96.39 52.05C96.1717 52.3478 95.8784 52.5824 95.54 52.73C95.1299 52.9066 94.6863 52.9919 94.24 52.98H92.68V47.35ZM94.38 52.23C94.6604 52.2343 94.9378 52.1726 95.19 52.05C95.4073 51.9332 95.5927 51.765 95.73 51.56C95.8576 51.3598 95.9522 51.1403 96.01 50.91C96.0707 50.6748 96.1009 50.4329 96.1 50.19C96.1138 49.6762 95.9708 49.1705 95.69 48.74C95.5532 48.5464 95.3695 48.3907 95.1561 48.2875C94.9428 48.1844 94.7067 48.137 94.47 48.15H93.53V52.23H94.38Z" fill="black"/>
<path d="M102.42 53L101.97 51.7H99.68L99.22 53H98.34L100.34 47.33H101.21L103.21 53H102.42ZM101.71 51L101 49.05C100.919 48.8422 100.856 48.6282 100.81 48.41C100.81 48.6 100.69 48.81 100.61 49.05L99.94 51H101.71Z" fill="black"/>
<path d="M106.58 48.16V53H105.74V48.16H104.14V47.35H108.14V48.16H106.58Z" fill="black"/>
<path d="M110.19 53V47.35H111V53H110.19Z" fill="black"/>
<path d="M116.61 53C116.291 53.122 115.951 53.1798 115.61 53.17C115.269 53.1773 114.93 53.1196 114.61 53C114.346 52.8995 114.107 52.7425 113.91 52.54C113.719 52.3452 113.563 52.1184 113.45 51.87C113.324 51.6205 113.233 51.3546 113.18 51.08C113.073 50.5251 113.073 49.9549 113.18 49.4C113.232 49.1219 113.323 48.8526 113.45 48.6C113.566 48.353 113.721 48.1266 113.91 47.93C114.108 47.7306 114.347 47.577 114.61 47.48C114.928 47.3553 115.269 47.2974 115.61 47.31C115.952 47.2948 116.293 47.3527 116.61 47.48C116.876 47.578 117.118 47.7314 117.32 47.93C117.509 48.1266 117.664 48.353 117.78 48.6C117.898 48.8564 117.988 49.1246 118.05 49.4C118.157 49.9549 118.157 50.5251 118.05 51.08C117.989 51.3523 117.898 51.6171 117.78 51.87C117.667 52.1184 117.511 52.3452 117.32 52.54C117.119 52.7422 116.877 52.899 116.61 53ZM114.91 52.17C115.138 52.3006 115.397 52.3663 115.66 52.36C115.921 52.364 116.177 52.2947 116.4 52.16C116.613 52.0343 116.788 51.855 116.91 51.64C117.022 51.4236 117.109 51.1956 117.17 50.96C117.222 50.7236 117.249 50.4822 117.25 50.24C117.249 49.9879 117.222 49.7366 117.17 49.49C117.11 49.2539 117.023 49.0256 116.91 48.81C116.79 48.5987 116.614 48.4253 116.4 48.31C116.176 48.1783 115.92 48.1124 115.66 48.12C115.396 48.1124 115.135 48.1819 114.91 48.32C114.7 48.4463 114.528 48.6257 114.41 48.84C114.294 49.0509 114.207 49.2762 114.15 49.51C114.09 49.7487 114.06 49.9939 114.06 50.24C114.059 50.4927 114.089 50.7446 114.15 50.99C114.205 51.2243 114.293 51.4498 114.41 51.66C114.538 51.851 114.709 52.0087 114.91 52.12V52.17Z" fill="black"/>
<path d="M124.54 53H123.75L121.29 49.16C121.208 49.0245 121.135 48.8842 121.07 48.74C121.07 48.99 121.07 49.13 121.07 49.16V53H120.23V47.35H121.08L123.47 51.14C123.53 51.23 123.6 51.38 123.7 51.57C123.7 51.41 123.7 51.27 123.7 51.14V47.35H124.54V53Z" fill="black"/>
</g>
<defs>
<clipPath id="clip0_140_443">
<rect width="150" height="73.56" fill="white"/>
</clipPath>
</defs>
</svg>
