<svg width="150" height="75" viewBox="0 0 150 75" fill="none" xmlns="http://www.w3.org/2000/svg">
<g clip-path="url(#clip0_140_194)">
<path d="M135.49 74.1201H0V15.4301L14.29 0.560059H150V59.3201L135.49 74.1201ZM2.86 71.2701H134.29L147.14 58.1601V3.42006H15.51L2.86 16.5601V71.2701Z" fill="white"/>
<path d="M46 24.4601V41.7201H42.51V24.4601H46Z" fill="white"/>
<path d="M60.37 30.0701V41.7401C60.37 45.3601 57.55 47.5801 54.11 47.5801C50.67 47.5801 48.29 45.5601 48.05 42.5601H51.55C51.69 43.7901 52.78 44.3501 54.23 44.3501C54.5827 44.3808 54.9378 44.3338 55.2703 44.2123C55.6028 44.0909 55.9046 43.8979 56.1544 43.6472C56.4042 43.3964 56.596 43.0938 56.7162 42.7609C56.8364 42.4279 56.8821 42.0726 56.85 41.7201V40.3001C55.8537 40.9159 54.7011 41.2318 53.53 41.2101C52.0254 41.2211 50.5765 40.642 49.494 39.5969C48.4115 38.5519 47.7818 37.1241 47.74 35.6201C47.7151 34.8521 47.8477 34.0871 48.1296 33.3723C48.4115 32.6574 48.8368 32.0079 49.3792 31.4636C49.9216 30.9193 50.5697 30.4918 51.2836 30.2075C51.9974 29.9231 52.7619 29.7879 53.53 29.8101C54.7005 29.7929 55.8519 30.1084 56.85 30.7201V30.1001L60.37 30.0701ZM56.85 36.9501V34.1001C56.5561 33.6565 56.1539 33.2951 55.6815 33.0501C55.2091 32.8051 54.682 32.6847 54.15 32.7001C53.7613 32.6782 53.3723 32.7389 53.0087 32.878C52.6451 33.0172 52.315 33.2317 52.0402 33.5075C51.7653 33.7833 51.5519 34.1141 51.414 34.4782C51.2761 34.8423 51.2168 35.2314 51.24 35.6201C51.2837 36.3584 51.6108 37.0513 52.1529 37.5543C52.6951 38.0574 53.4105 38.3317 54.15 38.3201C54.6811 38.3517 55.2111 38.2414 55.6855 38.0007C56.16 37.7599 56.5619 37.3974 56.85 36.9501Z" fill="white"/>
<path d="M74.41 35.7601C74.4179 36.9968 74.0582 38.2079 73.3765 39.2397C72.6948 40.2716 71.7218 41.0776 70.5812 41.5554C69.4405 42.0333 68.1836 42.1614 66.97 41.9235C65.7563 41.6857 64.6408 41.0926 63.7649 40.2195C62.889 39.3464 62.2923 38.2328 62.0505 37.0199C61.8088 35.8071 61.9328 34.5498 62.407 33.4076C62.8812 32.2654 63.684 31.2898 64.7137 30.6048C65.7433 29.9198 66.9533 29.5561 68.19 29.5601C69.0134 29.5294 69.8342 29.6686 70.6014 29.9691C71.3686 30.2695 72.0657 30.7248 72.6493 31.3064C73.2328 31.8881 73.6903 32.5837 73.9932 33.35C74.2962 34.1162 74.438 34.9366 74.41 35.7601ZM71.01 35.7601C71.033 35.3736 70.9767 34.9865 70.8446 34.6226C70.7125 34.2587 70.5074 33.9257 70.2419 33.6439C69.9764 33.3622 69.6561 33.1377 69.3006 32.9842C68.9452 32.8308 68.5621 32.7516 68.175 32.7516C67.7879 32.7516 67.4048 32.8308 67.0494 32.9842C66.6939 33.1377 66.3736 33.3622 66.1081 33.6439C65.8426 33.9257 65.6375 34.2587 65.5054 34.6226C65.3733 34.9865 65.317 35.3736 65.34 35.7601C65.317 36.1465 65.3733 36.5336 65.5054 36.8975C65.6375 37.2614 65.8426 37.5945 66.1081 37.8762C66.3736 38.158 66.6939 38.3825 67.0494 38.5359C67.4048 38.6894 67.7879 38.7685 68.175 38.7685C68.5621 38.7685 68.9452 38.6894 69.3006 38.5359C69.6561 38.3825 69.9764 38.158 70.2419 37.8762C70.5074 37.5945 70.7125 37.2614 70.8446 36.8975C70.9767 36.5336 71.033 36.1465 71.01 35.7601Z" fill="white"/>
<path d="M96.25 30.1V41.7H92.81V41.05C91.8128 41.6756 90.6571 42.0018 89.48 41.99C87.9252 41.9009 86.4633 41.2204 85.3941 40.0881C84.3248 38.9558 83.7291 37.4574 83.7291 35.9C83.7291 34.3426 84.3248 32.8442 85.3941 31.7119C86.4633 30.5796 87.9252 29.8991 89.48 29.81C90.6571 29.7982 91.8128 30.1244 92.81 30.75V30.1H96.25ZM92.78 37.69V34.15C92.4721 33.7059 92.0538 33.3497 91.5663 33.1164C91.0788 32.8832 90.539 32.7811 90 32.82C89.1778 32.82 88.3893 33.1466 87.808 33.728C87.2266 34.3093 86.9 35.0978 86.9 35.92C86.9 36.7422 87.2266 37.5307 87.808 38.112C88.3893 38.6934 89.1778 39.02 90 39.02C90.539 39.0589 91.0788 38.9568 91.5663 38.7236C92.0538 38.4903 92.4721 38.1341 92.78 37.69Z" fill="white"/>
<path d="M110.43 35.43V41.72H107V35.84C107 33.93 106.06 32.94 104.37 32.94C103.846 32.9826 103.338 33.1357 102.878 33.389C102.417 33.6424 102.016 33.9904 101.7 34.41V41.72H98.26V30.12H101.73V30.99C102.677 30.2244 103.862 29.8141 105.08 29.83C108.17 29.83 110.43 32 110.43 35.43Z" fill="white"/>
<path d="M128 24.8901H127.13V26.9401H126.63V24.8901H125.76V24.4301H128V24.8901Z" fill="white"/>
<path d="M131 26.9601H130.5V25.5601L129.84 26.5601H129.53L128.81 25.5601V26.9801H128.3V24.4301H128.66L129.66 25.9501L130.66 24.4301H131V26.9601Z" fill="white"/>
<path d="M40.89 41.7H37.32L35 33.04L30 41.7H26L33.74 28.29L32.48 23.61L22 41.7H18L31.25 18.77H34.77L36.29 24.48H39.9L37.44 28.77L40.89 41.7Z" fill="white"/>
<path d="M124.44 24.4601V41.7201H120.92V41.0701C119.924 41.6972 118.767 42.0236 117.59 42.0101C116.035 41.9209 114.573 41.2405 113.504 40.1082C112.435 38.9759 111.839 37.4775 111.839 35.9201C111.839 34.3627 112.435 32.8643 113.504 31.732C114.573 30.5997 116.035 29.9192 117.59 29.8301C118.767 29.8166 119.924 30.143 120.92 30.7701V24.4601H124.44ZM120.92 37.6901V34.1201C120.608 33.6836 120.19 33.3335 119.705 33.1026C119.221 32.8717 118.686 32.7676 118.15 32.8001C117.323 32.8001 116.529 33.1288 115.944 33.7139C115.359 34.299 115.03 35.0926 115.03 35.9201C115.03 36.7476 115.359 37.5411 115.944 38.1263C116.529 38.7114 117.323 39.0401 118.15 39.0401C118.689 39.0702 119.226 38.9619 119.711 38.7256C120.196 38.4893 120.612 38.1328 120.92 37.6901Z" fill="white"/>
<path d="M83 33.0401C82.315 33.0423 81.6383 33.1896 81.0143 33.4723C80.3904 33.7549 79.8334 34.1666 79.38 34.6801V41.6801H76V30.1501H79.47V31.0101C79.9676 30.6299 80.5364 30.3535 81.1428 30.1972C81.7491 30.0409 82.3807 30.0079 83 30.1001V33.0401Z" fill="white"/>
<path d="M67.56 53.56V47.91H71.07V48.71H68.4V50.26H70.12V51.06H68.4V53.56H67.56Z" fill="white"/>
<path d="M75.93 53.5601C75.6104 53.6796 75.2711 53.7373 74.93 53.7301C74.6122 53.7309 74.2969 53.6733 74 53.5601C73.7332 53.4591 73.4911 53.3023 73.29 53.1001C73.102 52.9026 72.9467 52.6765 72.83 52.4301C72.7118 52.1772 72.6213 51.9123 72.56 51.6401C72.4533 51.0851 72.4533 50.515 72.56 49.9601C72.6215 49.6846 72.712 49.4164 72.83 49.1601C72.9492 48.9151 73.1042 48.6893 73.29 48.4901C73.4921 48.2915 73.7341 48.1381 74 48.0401C74.3174 47.9128 74.6583 47.8548 75 47.8701C75.3414 47.8575 75.6818 47.9154 76 48.0401C76.2634 48.1371 76.5023 48.2907 76.7 48.4901C76.889 48.6867 77.0444 48.913 77.16 49.1601C77.2873 49.4127 77.3781 49.682 77.43 49.9601C77.5366 50.515 77.5366 51.0851 77.43 51.6401C77.3772 51.9147 77.2864 52.1806 77.16 52.4301C77.0469 52.6785 76.8912 52.9053 76.7 53.1001C76.4828 53.3114 76.2191 53.469 75.93 53.5601ZM74.23 52.7301C74.4539 52.8618 74.7104 52.9276 74.97 52.9201C75.2335 52.9228 75.4928 52.8536 75.72 52.7201C75.9275 52.5913 76.0994 52.4125 76.22 52.2001C76.34 51.9876 76.4277 51.7584 76.48 51.5201C76.5406 51.2849 76.5709 51.0429 76.57 50.8001C76.5709 50.5473 76.5406 50.2954 76.48 50.0501C76.4293 49.8112 76.3416 49.5818 76.22 49.3701C76.1015 49.1613 75.9287 48.9886 75.72 48.8701C75.492 48.7395 75.2326 48.6738 74.97 48.6801C74.7088 48.6708 74.4509 48.7405 74.23 48.8801C74.0158 49.0005 73.8419 49.1814 73.73 49.4001C73.6111 49.6106 73.5204 49.8359 73.46 50.0701C73.4082 50.31 73.3813 50.5546 73.38 50.8001C73.3808 51.0521 73.4076 51.3035 73.46 51.5501C73.5185 51.7848 73.6094 52.0103 73.73 52.2201C73.8526 52.4153 74.0252 52.5742 74.23 52.6801V52.7301Z" fill="white"/>
<path d="M81.65 53.68C81.3552 53.7015 81.0593 53.6573 80.7836 53.5507C80.5079 53.4441 80.2592 53.2777 80.0555 53.0635C79.8518 52.8493 79.6982 52.5926 79.6056 52.3119C79.513 52.0311 79.4837 51.7334 79.52 51.44V47.91H80.36V51.44C80.3398 51.6399 80.3595 51.8418 80.4179 52.0341C80.4762 52.2263 80.5721 52.4051 80.7 52.56C80.9732 52.7677 81.3069 52.8801 81.65 52.8801C81.9931 52.8801 82.3268 52.7677 82.6 52.56C82.741 52.4115 82.8494 52.2352 82.9183 52.0423C82.9872 51.8494 83.015 51.6443 83 51.44V47.91H83.84V51.44C83.8765 51.7343 83.847 52.033 83.7539 52.3145C83.6607 52.596 83.5061 52.8532 83.3013 53.0676C83.0965 53.282 82.8465 53.4482 82.5696 53.5541C82.2926 53.66 81.9956 53.703 81.7 53.68H81.65Z" fill="white"/>
<path d="M90.36 53.56H89.57L87.11 49.72C87.0284 49.5845 86.9549 49.4443 86.89 49.3C86.89 49.55 86.89 49.69 86.89 49.72V53.56H86.05V47.91H86.9L89.29 51.7C89.3759 51.8382 89.4528 51.9819 89.52 52.13C89.52 51.97 89.52 51.83 89.52 51.7V47.91H90.36V53.56Z" fill="white"/>
<path d="M92.68 47.9101H94.27C94.6998 47.9029 95.126 47.9882 95.52 48.1601C95.8531 48.3024 96.1454 48.5259 96.37 48.8101C96.57 49.0838 96.7253 49.3876 96.83 49.7101C96.9243 50.035 96.9715 50.3718 96.97 50.7101C96.9747 51.0486 96.9275 51.3859 96.83 51.7101C96.7326 52.0318 96.584 52.3357 96.39 52.6101C96.1717 52.9079 95.8784 53.1425 95.54 53.2901C95.1299 53.4667 94.6863 53.552 94.24 53.5401H92.68V47.9101ZM94.38 52.7901C94.6604 52.7944 94.9378 52.7327 95.19 52.6101C95.4073 52.4933 95.5927 52.3251 95.73 52.1201C95.8576 51.9199 95.9522 51.7004 96.01 51.4701C96.0707 51.2349 96.1009 50.9929 96.1 50.7501C96.1138 50.2363 95.9708 49.7306 95.69 49.3001C95.5532 49.1065 95.3695 48.9508 95.1561 48.8476C94.9428 48.7444 94.7067 48.6971 94.47 48.7101H93.53V52.7901H94.38Z" fill="white"/>
<path d="M102.42 53.56L101.97 52.26H99.68L99.22 53.56H98.34L100.34 47.89H101.21L103.21 53.56H102.42ZM101.71 51.56L101 49.61C100.919 49.4022 100.856 49.1882 100.81 48.97C100.81 49.16 100.69 49.37 100.61 49.61L99.94 51.56H101.71Z" fill="white"/>
<path d="M106.58 48.72V53.56H105.74V48.72H104.14V47.91H108.14V48.72H106.58Z" fill="white"/>
<path d="M110.19 53.56V47.91H111V53.56H110.19Z" fill="white"/>
<path d="M116.61 53.5601C116.291 53.6821 115.951 53.7399 115.61 53.7301C115.269 53.7373 114.93 53.6796 114.61 53.5601C114.346 53.4595 114.107 53.3025 113.91 53.1001C113.719 52.9053 113.563 52.6785 113.45 52.4301C113.324 52.1806 113.233 51.9147 113.18 51.6401C113.073 51.0851 113.073 50.515 113.18 49.9601C113.232 49.682 113.323 49.4127 113.45 49.1601C113.566 48.913 113.721 48.6867 113.91 48.4901C114.108 48.2907 114.347 48.1371 114.61 48.0401C114.928 47.9154 115.269 47.8575 115.61 47.8701C115.952 47.8548 116.293 47.9128 116.61 48.0401C116.876 48.1381 117.118 48.2915 117.32 48.4901C117.509 48.6867 117.664 48.913 117.78 49.1601C117.898 49.4164 117.988 49.6846 118.05 49.9601C118.157 50.515 118.157 51.0851 118.05 51.6401C117.989 51.9123 117.898 52.1772 117.78 52.4301C117.667 52.6785 117.511 52.9053 117.32 53.1001C117.119 53.3023 116.877 53.4591 116.61 53.5601ZM114.91 52.7301C115.138 52.8606 115.397 52.9263 115.66 52.9201C115.921 52.9241 116.177 52.8548 116.4 52.7201C116.613 52.5944 116.788 52.4151 116.91 52.2001C117.022 51.9837 117.109 51.7556 117.17 51.5201C117.222 51.2836 117.249 51.0422 117.25 50.8001C117.249 50.548 117.222 50.2966 117.17 50.0501C117.11 49.8139 117.023 49.5857 116.91 49.3701C116.79 49.1587 116.614 48.9854 116.4 48.8701C116.176 48.7383 115.92 48.6725 115.66 48.6801C115.396 48.6724 115.135 48.7419 114.91 48.8801C114.7 49.0064 114.528 49.1857 114.41 49.4001C114.294 49.611 114.207 49.8363 114.15 50.0701C114.09 50.3088 114.06 50.554 114.06 50.8001C114.059 51.0528 114.089 51.3047 114.15 51.5501C114.205 51.7844 114.293 52.0099 114.41 52.2201C114.538 52.4111 114.709 52.5688 114.91 52.6801V52.7301Z" fill="white"/>
<path d="M124.54 53.56H123.75L121.29 49.72C121.208 49.5845 121.135 49.4443 121.07 49.3C121.07 49.55 121.07 49.69 121.07 49.72V53.56H120.23V47.91H121.08L123.47 51.7C123.53 51.79 123.6 51.94 123.7 52.13C123.7 51.97 123.7 51.83 123.7 51.7V47.91H124.54V53.56Z" fill="white"/>
</g>
<defs>
<clipPath id="clip0_140_194">
<rect width="150" height="73.56" fill="white" transform="translate(0 0.560059)"/>
</clipPath>
</defs>
</svg>
