<?xml version="1.0" encoding="UTF-8" standalone="no"?>
<svg
   width="150"
   height="151"
   viewBox="0 0 150 151"
   fill="none"
   version="1.1"
   id="svg2222"
   sodipodi:docname="algogems.svg"
   inkscape:version="1.1.2 (b8e25be833, 2022-02-05)"
   xmlns:inkscape="http://www.inkscape.org/namespaces/inkscape"
   xmlns:sodipodi="http://sodipodi.sourceforge.net/DTD/sodipodi-0.dtd"
   xmlns="http://www.w3.org/2000/svg"
   xmlns:svg="http://www.w3.org/2000/svg">
  <sodipodi:namedview
     id="namedview2224"
     pagecolor="#505050"
     bordercolor="#eeeeee"
     borderopacity="1"
     inkscape:pageshadow="0"
     inkscape:pageopacity="0"
     inkscape:pagecheckerboard="0"
     showgrid="false"
     inkscape:zoom="11.562914"
     inkscape:cx="54.916953"
     inkscape:cy="73.424399"
     inkscape:window-width="3840"
     inkscape:window-height="2054"
     inkscape:window-x="-11"
     inkscape:window-y="-11"
     inkscape:window-maximized="1"
     inkscape:current-layer="svg2222" />
  <g
     clip-path="url(#clip0_273_3524)"
     id="g2215">
    <path
       d="M150 0.55957H0V150.56H150V0.55957Z"
       fill="black"
       id="path2213" />
  </g>
  <defs
     id="defs2220">
    <clipPath
       id="clip0_273_3524">
      <path
         d="M0 16.5596C0 7.72302 7.16344 0.55957 16 0.55957H134C142.837 0.55957 150 7.72301 150 16.5596V134.56C150 143.396 142.837 150.56 134 150.56H16C7.16345 150.56 0 143.396 0 134.56V16.5596Z"
         fill="white"
         id="path2217" />
    </clipPath>
    <linearGradient
       x1="70.074681"
       y1="63.318836"
       x2="329.6466"
       y2="298.38664"
       id="linearGradient-1"
       gradientTransform="scale(1.0626704,0.94102559)"
       gradientUnits="userSpaceOnUse">
      <stop
         stop-color="#64C5FB"
         offset="0%"
         id="stop2302" />
      <stop
         stop-color="#0040F2"
         offset="100%"
         id="stop2304" />
    </linearGradient>
    <linearGradient
       x1="217.4235"
       y1="213.07466"
       x2="287.05293"
       y2="248.3615"
       id="linearGradient-4"
       gradientTransform="scale(0.90621253,1.1034939)"
       gradientUnits="userSpaceOnUse">
      <stop
         stop-color="#1E9CFF"
         stop-opacity="0.426573427"
         offset="0%"
         id="stop2308" />
      <stop
         stop-color="#023DE0"
         offset="100%"
         id="stop2310" />
    </linearGradient>
    <mask
       id="mask-3"
       fill="white">
      <path
         d="M 229.04002,410 C 184.41867,410 0,186.27515 0,153.67421 0,121.07327 37.471193,39.040962 72.742755,16.731841 c 35.271565,-22.3091212 263.715995,-22.3091212 318.548035,0 54.83204,22.309121 72.82982,104.329919 71.65578,136.942369 C 461.77254,186.28666 273.66138,410 229.04002,410 Z"
         id="use2352" />
    </mask>
    <linearGradient
       x1="268.05583"
       y1="89.396767"
       x2="360.14761"
       y2="115.30665"
       id="linearGradient-5"
       gradientTransform="scale(1.1176277,0.89475235)"
       gradientUnits="userSpaceOnUse">
      <stop
         stop-color="#1E9CFF"
         stop-opacity="0.426573427"
         offset="0%"
         id="stop2313" />
      <stop
         stop-color="#023DE0"
         offset="100%"
         id="stop2315" />
    </linearGradient>
    <mask
       id="mask2401"
       fill="white">
      <path
         d="M 229.04002,410 C 184.41867,410 0,186.27515 0,153.67421 0,121.07327 37.471193,39.040962 72.742755,16.731841 c 35.271565,-22.3091212 263.715995,-22.3091212 318.548035,0 54.83204,22.309121 72.82982,104.329919 71.65578,136.942369 C 461.77254,186.28666 273.66138,410 229.04002,410 Z"
         id="use2399" />
    </mask>
    <linearGradient
       x1="237.26501"
       y1="164.91303"
       x2="387.71313"
       y2="250.08379"
       id="linearGradient-6"
       gradientTransform="scale(0.94137552,1.0622753)"
       gradientUnits="userSpaceOnUse">
      <stop
         stop-color="#0432D1"
         stop-opacity="0"
         offset="0%"
         id="stop2318" />
      <stop
         stop-color="#000000"
         stop-opacity="0.328671329"
         offset="100%"
         id="stop2320" />
    </linearGradient>
    <mask
       id="mask2408"
       fill="white">
      <path
         d="M 229.04002,410 C 184.41867,410 0,186.27515 0,153.67421 0,121.07327 37.471193,39.040962 72.742755,16.731841 c 35.271565,-22.3091212 263.715995,-22.3091212 318.548035,0 54.83204,22.309121 72.82982,104.329919 71.65578,136.942369 C 461.77254,186.28666 273.66138,410 229.04002,410 Z"
         id="use2406" />
    </mask>
    <linearGradient
       x1="232.18978"
       y1="191.55351"
       x2="232.18978"
       y2="34.421213"
       id="linearGradient-7"
       gradientTransform="scale(0.99722935,1.0027783)"
       gradientUnits="userSpaceOnUse">
      <stop
         stop-color="#CBE9FD"
         stop-opacity="0.545454545"
         offset="0%"
         id="stop2323" />
      <stop
         stop-color="#9CCFFB"
         stop-opacity="0.0979020979"
         offset="100%"
         id="stop2325" />
    </linearGradient>
    <mask
       id="mask2415"
       fill="white">
      <path
         d="M 229.04002,410 C 184.41867,410 0,186.27515 0,153.67421 0,121.07327 37.471193,39.040962 72.742755,16.731841 c 35.271565,-22.3091212 263.715995,-22.3091212 318.548035,0 54.83204,22.309121 72.82982,104.329919 71.65578,136.942369 C 461.77254,186.28666 273.66138,410 229.04002,410 Z"
         id="use2413" />
    </mask>
    <mask
       id="mask2419"
       fill="white">
      <path
         d="M 229.04002,410 C 184.41867,410 0,186.27515 0,153.67421 0,121.07327 37.471193,39.040962 72.742755,16.731841 c 35.271565,-22.3091212 263.715995,-22.3091212 318.548035,0 54.83204,22.309121 72.82982,104.329919 71.65578,136.942369 C 461.77254,186.28666 273.66138,410 229.04002,410 Z"
         id="use2417" />
    </mask>
    <linearGradient
       x1="4.2902936"
       y1="378.35879"
       x2="171.14861"
       y2="378.35879"
       id="linearGradient-8"
       gradientTransform="scale(2.7798757,0.35972832)"
       gradientUnits="userSpaceOnUse">
      <stop
         stop-color="#ABD9FD"
         offset="0%"
         id="stop2328" />
      <stop
         stop-color="#9CCFFB"
         offset="50.8583691%"
         id="stop2330" />
      <stop
         stop-color="#0545EB"
         offset="100%"
         id="stop2332" />
    </linearGradient>
    <radialGradient
       cx="275.9909"
       cy="132.25376"
       fx="275.9909"
       fy="132.25376"
       r="337.07557"
       gradientTransform="scale(0.88709805,1.1272711)"
       id="radialGradient-9"
       gradientUnits="userSpaceOnUse">
      <stop
         stop-color="#9CCFFB"
         offset="0%"
         id="stop2335" />
      <stop
         stop-color="#9DD0FB"
         stop-opacity="0.153846154"
         offset="100%"
         id="stop2337" />
    </radialGradient>
    <linearGradient
       x1="155.59911"
       y1="170.05229"
       x2="93.709926"
       y2="318.30486"
       id="linearGradient-10"
       gradientTransform="scale(0.93356712,1.0711603)"
       gradientUnits="userSpaceOnUse">
      <stop
         stop-color="#CBE9FD"
         offset="0%"
         id="stop2340" />
      <stop
         stop-color="#9CCFFB"
         stop-opacity="0.0979020979"
         offset="100%"
         id="stop2342" />
    </linearGradient>
    <mask
       id="mask2433"
       fill="white">
      <path
         d="M 229.04002,410 C 184.41867,410 0,186.27515 0,153.67421 0,121.07327 37.471193,39.040962 72.742755,16.731841 c 35.271565,-22.3091212 263.715995,-22.3091212 318.548035,0 54.83204,22.309121 72.82982,104.329919 71.65578,136.942369 C 461.77254,186.28666 273.66138,410 229.04002,410 Z"
         id="use2431" />
    </mask>
    <linearGradient
       x1="78.894449"
       y1="111.47577"
       x2="78.894449"
       y2="-157.61039"
       id="linearGradient-11"
       gradientTransform="scale(2.9443976,0.33962805)"
       gradientUnits="userSpaceOnUse">
      <stop
         stop-color="#CBE9FD"
         stop-opacity="0.461538462"
         offset="0%"
         id="stop2345" />
      <stop
         stop-color="#156CF0"
         stop-opacity="0"
         offset="100%"
         id="stop2347" />
    </linearGradient>
    <mask
       id="mask2440"
       fill="white">
      <path
         d="M 229.04002,410 C 184.41867,410 0,186.27515 0,153.67421 0,121.07327 37.471193,39.040962 72.742755,16.731841 c 35.271565,-22.3091212 263.715995,-22.3091212 318.548035,0 54.83204,22.309121 72.82982,104.329919 71.65578,136.942369 C 461.77254,186.28666 273.66138,410 229.04002,410 Z"
         id="use2438" />
    </mask>
  </defs>
  <g
     id="Logo"
     stroke="none"
     stroke-width="1"
     fill="none"
     fill-rule="evenodd"
     transform="matrix(0.18494678,0,0,0.18494678,27.809037,30.721539)">
    <g
       transform="translate(19,46)"
       id="g2367">
      <mask
         id="mask2446"
         fill="#ffffff">
        <path
           d="M 229.04002,410 C 184.41867,410 0,186.27515 0,153.67421 0,121.07327 37.471193,39.040962 72.742755,16.731841 c 35.271565,-22.3091212 263.715995,-22.3091212 318.548035,0 54.83204,22.309121 72.82982,104.329919 71.65578,136.942369 C 461.77254,186.28666 273.66138,410 229.04002,410 Z"
           id="use2444" />
      </mask>
      <path
         d="M 229.04002,410 C 184.41867,410 0,186.27515 0,153.67421 0,121.07327 37.471193,39.040962 72.742755,16.731841 c 35.271565,-22.3091212 263.715995,-22.3091212 318.548035,0 54.83204,22.309121 72.82982,104.329919 71.65578,136.942369 C 461.77254,186.28666 273.66138,410 229.04002,410 Z"
         id="Mask"
         style="fill:url(#linearGradient-1)" />
      <polygon
         id="Path-2"
         fill="url(#linearGradient-4)"
         mask="url(#mask-3)"
         points="229.40572,422.93759 318.19389,198.90177 224.97299,205.32262 144.83556,200.26191 "
         style="fill:url(#linearGradient-4)" />
      <polygon
         id="Path-2-Copy"
         fill="url(#linearGradient-5)"
         mask="url(#mask-3)"
         points="232.03265,37.607958 392.56856,13.993525 468.40454,42.527631 463.48013,155.68012 318.19389,198.90177 "
         style="fill:url(#linearGradient-5)" />
      <path
         d="m 316.85317,195.84063 -89.63144,225.50758 c 50.95458,-19.49221 99.15631,-55.76447 144.60521,-108.81679 45.44889,-53.05232 80.78122,-109.24913 105.99698,-168.59043 -29.44125,14.32267 -57.24529,25.53104 -83.41212,33.62512 -26.16682,8.09408 -52.0197,14.18559 -77.55863,18.27452 z"
         id="Path-6"
         fill="url(#linearGradient-6)"
         mask="url(#mask-3)"
         style="fill:url(#linearGradient-6)" />
      <path
         d="M 229.56488,34.516847 146.73479,199.79708 c 26.18979,3.52464 53.74677,5.28696 82.67093,5.28696 28.92416,0 57.9083,-2.65614 86.95241,-7.96843 z"
         id="Path-5"
         fill="url(#linearGradient-7)"
         mask="url(#mask-3)"
         style="fill:url(#linearGradient-7)" />
      <g
         id="lines"
         mask="url(#mask-3)"
         stroke-linecap="round"
         stroke-linejoin="round"
         stroke-width="5.2221">
        <g
           transform="translate(-12.814219,16.731841)"
           id="g2362">
          <path
             d="m 0,129.47339 c 69.700377,40.7355 150.44036,60.33376 242.21994,58.79477 91.77958,-1.53899 174.41641,-21.13725 247.91049,-58.79477"
             id="Path-3"
             stroke="url(#linearGradient-8)"
             style="stroke:url(#linearGradient-8)" />
          <path
             d="M 85.556974,0 242.21994,406.20575 404.10501,0 C 348.41038,12.436372 294.4487,18.654557 242.21994,18.654557 189.99119,18.654557 137.7702,12.436372 85.556974,0 Z"
             id="Path-4"
             stroke="url(#radialGradient-9)"
             style="stroke:url(#radialGradient-9)" />
        </g>
      </g>
      <path
         d="M 145.27298,197.30259 C 123.60783,194.94515 98.852475,189.21913 71.00693,180.12454 43.161384,171.02996 15.357345,159.21243 -12.405187,144.67197 17.136798,205.02285 50.356816,256.57705 87.254867,299.33459 124.15292,342.09213 172.14996,382.76334 231.246,421.34821 Z"
         id="Path"
         fill="url(#linearGradient-10)"
         mask="url(#mask-3)"
         style="fill:url(#linearGradient-10)" />
      <path
         d="M 231.246,0 C 154.87383,-0.6565136 68.693393,2.4152532 68.18439,12.159083 67.679935,21.902912 151.92544,37.176559 229.08404,37.839833 306.24263,38.503107 395.96139,22.882851 396.40946,14.299145 396.85418,5.7154393 307.61816,0.6565136 231.246,0 Z"
         id="Path-7"
         fill="url(#linearGradient-11)"
         mask="url(#mask-3)"
         style="fill:url(#linearGradient-11)" />
    </g>
  </g>
</svg>
