<svg width="150" height="151" viewBox="0 0 150 151" fill="none" xmlns="http://www.w3.org/2000/svg">
<g clip-path="url(#clip0_273_3524)">
<path d="M150 0.55957H0V150.56H150V0.55957Z" fill="black"/>
<path d="M56.0776 56.6338H48.5063V64.205H56.0776V56.6338Z" fill="#202021"/>
<path d="M116.636 64.2041H109.065V71.7753H116.636V64.2041Z" fill="#F41B8E"/>
<path d="M124.207 71.7754H116.636V79.3466H124.207V71.7754Z" fill="#F41B8E"/>
<path d="M101.494 71.7754V56.6329H93.9261V49.0654H71.2161V41.4941H63.6449V49.0654H56.0736V41.4941H48.5061V49.0654H40.9349V64.2041H25.7961V86.9141H40.9349V94.4854H48.5061V109.624H56.0736V102.053H78.7836V109.624H86.3549V94.4854H93.9261V86.9141H101.494V79.3429H109.065V71.7754H101.494ZM48.5061 56.6329H56.0736V64.2041H48.5061V56.6329Z" fill="#F41B8E"/>
</g>
<defs>
<clipPath id="clip0_273_3524">
<path d="M0 16.5596C0 7.72302 7.16344 0.55957 16 0.55957H134C142.837 0.55957 150 7.72301 150 16.5596V134.56C150 143.396 142.837 150.56 134 150.56H16C7.16345 150.56 0 143.396 0 134.56V16.5596Z" fill="white"/>
</clipPath>
</defs>
</svg>
