<svg width="300" height="121" viewBox="0 0 300 121" fill="none" xmlns="http://www.w3.org/2000/svg">
<path d="M1.5 119.06V33.1813L32.6213 2.06H298.5V87.9387L267.379 119.06H1.5Z" fill="#201F21" stroke="#DCFE54" stroke-width="3"/>
<path fill-rule="evenodd" clip-rule="evenodd" d="M51.1312 45.9667L46.6409 52.6351V77.7791H65.7625V73.2887H51.1339V45.9667H51.1312ZM96.0034 57.8189C94.358 49.5527 87.1544 46.4835 81.1954 46.4835C72.6128 46.4835 65.8997 53.0622 65.8997 62.2618C65.8997 71.4614 72.481 77.9979 81.1954 77.9979C86.8433 77.9979 93.2453 74.1746 95.3811 68.2182V68.2631C95.7819 67.24 96.0034 65.5076 96.2248 62.8841H79.4604V67.3745H90.9777C89.1109 71.907 85.0187 73.6868 81.1954 73.6868C75.1045 73.6868 70.39 68.8431 70.39 62.2645C70.39 55.6858 75.1045 50.9739 81.1954 50.9739C85.1532 50.9739 89.9547 52.7959 91.1992 57.8189H96.0007H96.0034ZM123.557 70.2643C125.559 68.2209 126.848 65.4206 126.848 62.2196C126.848 59.0186 125.559 56.2184 123.557 54.1749C121.466 52.0866 118.577 50.7973 115.51 50.7973C112.443 50.7973 109.596 52.0866 107.55 54.1749C105.504 56.2184 104.214 59.0634 104.214 62.2196C104.214 65.3758 105.504 68.2209 107.55 70.2643C109.596 72.3526 112.441 73.642 115.51 73.642C118.579 73.642 121.469 72.3526 123.557 70.2643ZM104.304 73.4653C101.504 70.5755 99.679 66.6204 99.679 62.2196C99.679 57.8189 101.501 53.8638 104.304 50.9739C107.149 48.084 111.151 46.2621 115.51 46.2621C119.869 46.2621 123.868 48.084 126.761 50.9739C129.561 53.8638 131.386 57.8189 131.386 62.2196C131.386 66.6204 129.564 70.5755 126.761 73.4653C123.871 76.4 119.913 78.1772 115.51 78.1772C111.107 78.1772 107.152 76.4 104.304 73.4653ZM156.648 54.5309C155.847 48.8408 150.869 46.3517 146.065 46.3517C142.463 46.3517 138.727 47.7729 136.638 50.4861C135.304 52.2185 134.771 54.3094 134.948 56.3977V56.3529C135.439 62.8419 141.129 63.9098 145.975 64.3976C149.086 64.7087 152.29 65.1095 152.823 67.4641C152.912 67.8649 152.957 68.2209 152.957 68.532C152.957 71.733 149.31 73.5998 145.975 73.5998C143.085 73.5998 139.573 72.089 139.259 69.1991V69.3758L139.214 68.7087L134.679 68.7983L134.724 69.6421C135.301 75.1977 141.126 78.0427 145.93 78.0427C151.533 78.0427 157.492 74.5754 157.492 68.5742C157.492 67.9519 157.403 67.1952 157.271 66.5307C156.071 61.5525 150.779 60.4425 146.51 59.9072C143.175 59.5961 139.663 59.1953 139.441 55.9969C139.351 54.929 139.576 53.9086 140.198 53.107C141.442 51.5065 143.755 50.7946 145.846 50.7524C148.559 50.7076 151.581 51.9073 152.206 54.7075L156.651 54.5309H156.648ZM191.918 46.4862C197.877 46.4862 205.08 49.5527 206.726 57.8215H201.924C200.679 52.7985 195.875 50.9766 191.92 50.9766C185.829 50.9766 181.115 55.7332 181.115 62.2671C181.115 68.8009 185.829 73.6895 191.92 73.6895C195.743 73.6895 199.836 71.9123 201.703 67.3771H190.185V62.8867H206.95C206.728 65.5103 206.504 67.2426 206.106 68.2657V68.2209C203.973 74.1773 197.568 78.0005 191.92 78.0005C183.206 78.0005 176.624 71.4219 176.624 62.2645C176.624 53.107 183.338 46.4862 191.92 46.4862H191.918ZM215.69 77.7791V56.0444L230.72 77.7791H234.277V46.6655H229.831V68.5795L214.667 46.6655L211.2 46.6207V77.7791H215.69ZM257.575 64.4899H243.479V73.2913H257.931V77.7817H238.944V46.7129H257.886V51.2033H243.479V59.9599H257.575V64.4925V64.4899ZM267.837 64.1339L279.175 77.7791H285L275.173 66.0877C280.51 65.1543 283.22 60.9751 283.22 56.577C283.22 51.6436 279.842 46.6655 273.085 46.6655H261.744V77.7791H266.189V51.198H273.082C276.86 51.198 278.727 53.9086 278.727 56.577C278.727 59.2454 276.858 62.0008 273.082 62.0008H267.835V64.1339H267.837ZM175.343 46.6655H161.263V51.1559H175.343V46.6655ZM167.607 52.6377L170.531 55.5777V73.2834H175.346V77.7791H161.265V73.2834H166.08V52.6351H167.612L167.607 52.6377Z" fill="url(#paint0_linear_297_2529)"/>
<path d="M15.9229 66.0429H32.1151L29.8739 68.5346H15.9229V66.0429Z" fill="url(#paint1_linear_297_2529)"/>
<path fill-rule="evenodd" clip-rule="evenodd" d="M39.7933 77.6313L35.324 65.882L38.5198 61.5762L44.8664 77.6313H39.7959H39.7933ZM30.686 53.6923L33.0907 60.0126L36.2653 55.8755L32.3076 45.8638C31.9226 44.8882 30.9813 44.2475 29.9319 44.2475C28.8825 44.2475 27.9411 44.8882 27.5562 45.8638L19.9729 65.0461H24.9089C26.8021 60.0759 28.6583 55.2111 29.2411 53.6818C29.3544 53.3812 29.6392 53.1913 29.9609 53.1913C30.2826 53.1913 30.57 53.3891 30.6834 53.6897L30.686 53.6923ZM23.2029 69.5312C21.7105 73.4494 20.4475 76.7612 20.1206 77.6313H15L18.201 69.5312H23.2003H23.2029Z" fill="url(#paint2_linear_297_2529)"/>
<path fill-rule="evenodd" clip-rule="evenodd" d="M46.894 43.5488C47.3844 42.8844 48.3205 42.7446 48.9849 43.2377C49.6494 43.7281 49.7891 44.6642 49.2987 45.3286L35.44 64.0601C35.3609 64.1655 35.2633 64.2578 35.1499 64.3264L32.4341 66.0192C32.2311 66.1457 31.9806 65.9585 32.0412 65.7291L32.8665 62.6362C32.9008 62.507 32.9588 62.3884 33.0379 62.2829L45.5624 45.355L45.3884 45.2258C45.2724 45.1388 45.1063 45.1651 45.0219 45.2812L40.9903 50.7313C41.0589 50.8895 41.0431 51.0794 40.935 51.227L40.194 52.229C40.0305 52.4505 39.7194 52.4979 39.4979 52.3318C39.2764 52.1683 39.229 51.8572 39.3951 51.6357L40.136 50.6338V50.6285L44.6976 44.469C45.043 44.0023 45.7022 43.9048 46.1689 44.2502L46.3086 44.353L46.9019 43.5515L46.894 43.5488Z" fill="url(#paint3_linear_297_2529)"/>
<defs>
<linearGradient id="paint0_linear_297_2529" x1="46.6409" y1="45.9667" x2="55.1902" y2="109.232" gradientUnits="userSpaceOnUse">
<stop stop-color="#DCFE54"/>
<stop offset="1" stop-color="#01DC94"/>
</linearGradient>
<linearGradient id="paint1_linear_297_2529" x1="15.9229" y1="66.0429" x2="16.672" y2="70.9111" gradientUnits="userSpaceOnUse">
<stop stop-color="#DCFE54"/>
<stop offset="1" stop-color="#01DC94"/>
</linearGradient>
<linearGradient id="paint2_linear_297_2529" x1="15" y1="44.2475" x2="48.178" y2="73.9297" gradientUnits="userSpaceOnUse">
<stop stop-color="#DCFE54"/>
<stop offset="1" stop-color="#01DC94"/>
</linearGradient>
<linearGradient id="paint3_linear_297_2529" x1="32.032" y1="42.9428" x2="54.3019" y2="59.8587" gradientUnits="userSpaceOnUse">
<stop stop-color="#DCFE54"/>
<stop offset="1" stop-color="#01DC94"/>
</linearGradient>
</defs>
</svg>
