<svg width="48" height="48" viewBox="0 0 48 48" fill="none" xmlns="http://www.w3.org/2000/svg">
<circle cx="24" cy="24" r="24" fill="#000C28"/>
<path d="M33.5661 15.4165C31.8494 14.6259 30.0028 14.0442 28.0772 13.711C28.0433 13.7054 28.0094 13.7223 27.9868 13.7506C27.7496 14.1741 27.4842 14.7219 27.3035 15.1567C25.231 14.8461 23.1699 14.8461 21.1369 15.1567C20.9506 14.7162 20.6795 14.1741 20.4423 13.7506C20.4254 13.7223 20.3915 13.7054 20.352 13.711C18.4263 14.0442 16.5797 14.6259 14.863 15.4165C14.8461 15.4221 14.8348 15.4334 14.8292 15.4447C11.328 20.6682 10.3736 25.7675 10.8423 30.799C10.8423 30.8216 10.8593 30.8499 10.8762 30.8612C13.1859 32.5553 15.4165 33.583 17.6132 34.2663C17.647 34.2776 17.6866 34.2663 17.7092 34.2381C18.2287 33.5322 18.6917 32.7812 19.087 31.9962C19.1096 31.951 19.087 31.8946 19.0419 31.8776C18.3077 31.6009 17.6075 31.2621 16.9355 30.8725C16.8847 30.8442 16.879 30.7652 16.9242 30.7313C17.0654 30.624 17.2066 30.5167 17.3421 30.4037C17.3647 30.3812 17.3986 30.3812 17.4268 30.3925C21.8428 32.4085 26.6202 32.4085 30.9854 30.3925C31.0136 30.3812 31.0475 30.3812 31.0757 30.4037C31.2113 30.5167 31.3525 30.624 31.4936 30.7313C31.5445 30.7652 31.5388 30.8442 31.488 30.8725C30.816 31.2677 30.1157 31.5953 29.3816 31.872C29.3365 31.8889 29.3139 31.9454 29.3365 31.9906C29.743 32.7755 30.2061 33.5209 30.7143 34.2325C30.7369 34.2607 30.7765 34.2776 30.8103 34.2663C33.0127 33.583 35.2489 32.5553 37.5586 30.8612C37.5812 30.8442 37.5925 30.8216 37.5925 30.799C38.1572 24.9826 36.6494 19.9228 33.6056 15.4447C33.6 15.4277 33.583 15.4165 33.5717 15.4108L33.5661 15.4165ZM19.7421 27.7327C18.415 27.7327 17.3195 26.5129 17.3195 25.0165C17.3195 23.52 18.3925 22.3002 19.7421 22.3002C21.0917 22.3002 22.1873 23.5313 22.1647 25.0165C22.1647 26.5129 21.0917 27.7327 19.7421 27.7327ZM28.704 27.7327C27.3769 27.7327 26.2814 26.5129 26.2814 25.0165C26.2814 23.52 27.3543 22.3002 28.704 22.3002C30.0536 22.3002 31.1492 23.5313 31.1266 25.0165C31.1266 26.5129 30.0649 27.7327 28.704 27.7327Z" fill="white"/>
</svg>
