<svg width="48" height="49" viewBox="0 0 48 49" fill="none" xmlns="http://www.w3.org/2000/svg">
<circle cx="24" cy="24.9285" r="24" fill="#009ADE"/>
<g clip-path="url(#clip0_49_228)">
<path d="M37.6659 25.1261C37.6659 17.6889 31.6348 11.6578 24.1977 11.6578C16.7605 11.6578 10.7294 17.6889 10.7294 25.1261C10.7294 31.8461 15.6537 37.4197 22.0913 38.4305V29.0169H18.6692V25.1261H22.0913V22.1614C22.0913 18.7844 24.1017 16.9209 27.1793 16.9209C28.6532 16.9209 30.1948 17.1863 30.1948 17.1863V20.5011H28.4951C26.8235 20.5011 26.2984 21.5402 26.2984 22.6018V25.1261H30.0311L29.4325 29.0169H26.2927V38.4305C32.7304 37.4197 37.6546 31.8461 37.6546 25.1261H37.6659Z" fill="white"/>
</g>
<defs>
<clipPath id="clip0_49_228">
<rect width="26.9365" height="26.9365" fill="white" transform="translate(10.7294 11.6578)"/>
</clipPath>
</defs>
</svg>
