<svg width="48" height="49" viewBox="0 0 48 49" fill="none" xmlns="http://www.w3.org/2000/svg">
<path d="M48 24.9285C48 38.1833 37.2548 48.9285 24 48.9285C10.7452 48.9285 0 38.1833 0 24.9285C0 11.6736 10.7452 0.928467 24 0.928467C37.2548 0.928467 48 11.6736 48 24.9285Z" fill="#009ADE"/>
<g clip-path="url(#clip0_49_236)">
<path d="M11.1699 20.5632H16.7435V38.487H11.1699V20.5632ZM13.9595 11.6578C15.744 11.6578 17.1897 13.1035 17.1897 14.888C17.1897 16.6724 15.744 18.1181 13.9595 18.1181C12.1751 18.1181 10.7294 16.6724 10.7294 14.888C10.7294 13.1035 12.1751 11.6578 13.9595 11.6578Z" fill="white"/>
<path d="M20.2391 20.5632H25.5755V23.014H25.6772C26.7671 21.1505 28.7887 20.0437 30.9459 20.1227C36.593 20.1227 37.6264 23.8329 37.6264 28.6554V38.487H32.0584V29.7736C32.0584 27.6954 32.0245 25.0187 29.1671 25.0187C26.3097 25.0187 25.824 27.2776 25.824 29.6211V38.487H20.2617L20.2391 20.5632Z" fill="white"/>
</g>
<defs>
<clipPath id="clip0_49_236">
<rect width="26.8969" height="26.8292" fill="white" transform="translate(10.7294 11.6578)"/>
</clipPath>
</defs>
</svg>
