<svg width="250" height="34" viewBox="0 0 250 34" fill="none" xmlns="http://www.w3.org/2000/svg">
<path fill-rule="evenodd" clip-rule="evenodd" d="M26.2089 10.9888V30.938H31.4383V3.11894H25.8253L16.6952 16.2745L7.56163 3.11894H1.94519V30.9348H7.17807V11.065L16.5651 24.0999H16.7363L26.2089 10.9856V10.9888ZM159.161 3.11894H136.955V7.53164H159.161V3.11894ZM202.089 30.9348L193.99 20.4047C195.048 20.1412 196.01 19.7634 196.88 19.2713C197.75 18.7824 198.503 18.1888 199.13 17.484C199.76 16.7824 200.25 15.9761 200.61 15.0586C200.966 14.1443 201.147 13.1062 201.147 11.9412C201.147 10.592 200.89 9.36656 200.377 8.26498C199.863 7.16656 199.127 6.23958 198.168 5.48402C197.209 4.72847 196.038 4.14434 194.651 3.73482C193.267 3.32212 191.719 3.11894 190.003 3.11894H176.627V7.53164H189.551C191.531 7.53164 193.068 7.91894 194.151 8.70942C195.243 9.49037 195.788 10.6555 195.788 12.1983C195.788 13.6364 195.229 14.7824 194.106 15.6301C192.993 16.484 191.486 16.9094 189.592 16.9094H176.623V30.9348H181.856V21.2396H188.476L195.873 30.9348H202.089ZM136.952 14.684V30.9348H159.373V26.5253H142.182V19.0904H157.229V14.6808H136.952V14.684ZM108.425 15.0808L120.897 3.11894H114.425L100.151 17.1062V3.11894H94.9178V30.9348H100.151V22.8682L104.822 18.4174L115.068 30.9348H121.455L108.425 15.0777V15.0808ZM65.6233 2.92212H60.7397L47.5377 30.938H52.9383C58.2671 19.3412 57.4281 21.0332 63.0993 8.76656C68.363 20.0555 68.3836 20.1824 73.2568 30.938H78.8288L65.6233 2.92212Z" fill="white"/>
<path fill-rule="evenodd" clip-rule="evenodd" d="M215.771 1.94751H228.723L233.688 9.63957L231.808 12.5507L227.671 18.9666L227.209 19.6777L224.64 23.6586L221.253 28.9126H226.695L228.993 25.3475L230.873 28.2586L228.517 31.9094H215.565L224.394 18.2237L225.332 16.7697L215.771 1.94751Z" fill="#009ADE"/>
<path fill-rule="evenodd" clip-rule="evenodd" d="M215.771 1.94751H228.723L233.688 9.63957L231.808 12.5507L227.671 18.9666L227.209 19.6777L224.64 23.6586L221.253 28.9126H226.695L228.993 25.3475L230.873 28.2586L228.517 31.9094H215.565L224.394 18.2237L225.332 16.7697L215.771 1.94751Z" fill="url(#paint0_linear_49_219)"/>
<path fill-rule="evenodd" clip-rule="evenodd" d="M245.212 31.9094H235.103L233.168 28.9126L232.202 27.4142L230.5 24.7761L228.151 21.1316L230.027 18.2205L232.377 21.8681L235.959 27.4142L236.925 28.9126H240.089H242.366L234.531 16.7697L242.161 4.94434H236.716L234.627 8.1856L232.747 5.27449L234.894 1.94751H247.849L238.284 16.7697L248.055 31.9094H245.212Z" fill="url(#paint1_linear_49_219)"/>
<path fill-rule="evenodd" clip-rule="evenodd" d="M245.212 31.9094H235.103L233.168 28.9126L232.202 27.4142L230.5 24.7761L228.151 21.1316L230.027 18.2205L232.377 21.8681L235.959 27.4142L236.925 28.9126H240.089H242.366L234.531 16.7697L242.161 4.94434H236.716L234.627 8.1856L232.747 5.27449L234.894 1.94751H247.849L238.284 16.7697L248.055 31.9094H245.212Z" fill="url(#paint2_linear_49_219)"/>
<path fill-rule="evenodd" clip-rule="evenodd" d="M217.531 4.67126L225.332 16.7665L230.233 9.17603L217.531 4.67126Z" fill="url(#paint3_linear_49_219)"/>
<defs>
<linearGradient id="paint0_linear_49_219" x1="225.658" y1="30.9888" x2="223.239" y2="3.12929" gradientUnits="userSpaceOnUse">
<stop stop-color="#00B2E3" stop-opacity="0"/>
<stop offset="1" stop-color="#00B2E3"/>
</linearGradient>
<linearGradient id="paint1_linear_49_219" x1="238.613" y1="32.1507" x2="237.845" y2="2.16016" gradientUnits="userSpaceOnUse">
<stop stop-color="#FFC600"/>
<stop offset="1" stop-color="#FFC600"/>
</linearGradient>
<linearGradient id="paint2_linear_49_219" x1="238.613" y1="32.1507" x2="237.845" y2="2.16016" gradientUnits="userSpaceOnUse">
<stop stop-color="#E50695" stop-opacity="0"/>
<stop offset="1" stop-color="#E50695"/>
</linearGradient>
<linearGradient id="paint3_linear_49_219" x1="223.897" y1="6.43634" x2="223.641" y2="16.5358" gradientUnits="userSpaceOnUse">
<stop stop-color="#051C2C" stop-opacity="0"/>
<stop offset="1" stop-color="#051C2C"/>
</linearGradient>
</defs>
</svg>
