<svg width="300" height="121" viewBox="0 0 300 121" fill="none" xmlns="http://www.w3.org/2000/svg">
<path d="M1.5 119.06V33.1813L32.6213 2.06H298.5V87.9387L267.379 119.06H1.5Z" fill="#201F21" stroke="#DCFE54" stroke-width="3"/>
<path d="M62.985 101.605C52.8811 101.579 43.1477 97.7969 35.6766 90.9945C28.2055 84.1921 23.5302 74.8549 22.5593 64.7977C21.5885 54.7404 24.3915 44.6814 30.4235 36.5755C36.4555 28.4697 45.2858 22.8959 55.1981 20.9374C65.1105 18.9789 75.397 20.7757 84.0585 25.9784C92.7201 31.1812 99.1379 39.4184 102.065 49.0891C104.992 58.7599 104.219 69.1735 99.8962 78.3061C95.5735 87.4387 88.0098 94.6381 78.675 98.505C73.6992 100.558 68.3678 101.612 62.985 101.605ZM73.8875 48.31L74.2175 49.59L80.9375 73.945H86.405L77.2325 42.3575L77.01 41.5H72.25L72.1375 41.6725L67.6775 49.5925L63.105 57.7175L62.9925 57.9125L62.9425 57.7175L62.3775 55.63L60.8175 49.5925L60.65 48.9925L58.92 42.355L58.695 41.4975H53.945L53.835 41.67L49.3775 49.5925L44.8025 57.7175L40.25 65.81L35.6675 73.9425H41.13L45.7025 65.81L50.2775 57.7175L54.8225 49.5925L55.5725 48.305L55.905 49.5925L57.3 54.9425L59.03 61.605L59.6325 63.8775L58.55 65.81L53.97 73.935H59.4325L61.3625 70.5075L64.7175 64.56L68.58 57.7225L73.125 49.5975L73.875 48.315L73.8875 48.31Z" fill="url(#paint0_linear_297_2522)"/>
<path d="M127.875 76.3625L134.325 41.4025C134.38 41.1909 134.5 41.0019 134.669 40.862C134.837 40.7221 135.044 40.6384 135.262 40.6225H136.098C136.282 40.6323 136.46 40.69 136.615 40.79C136.771 40.8899 136.898 41.0297 136.983 41.195L147.855 67.7775H148.063L158.88 41.195C158.959 41.0267 159.084 40.8838 159.24 40.7825C159.396 40.6804 159.578 40.6249 159.765 40.6225H160.6C160.818 40.6384 161.026 40.7221 161.194 40.862C161.362 41.0019 161.482 41.1909 161.538 41.4025L167.935 76.3625C167.991 76.5056 168.007 76.6609 167.983 76.8125C167.96 76.9631 167.899 77.1053 167.805 77.225C167.71 77.3447 167.587 77.4382 167.446 77.4968C167.305 77.5554 167.152 77.5772 167 77.56H163.61C163.388 77.5559 163.174 77.4836 162.995 77.353C162.816 77.2223 162.681 77.0397 162.61 76.83L158.765 53.58H158.61L149.25 77.5075C149.183 77.6848 149.061 77.8363 148.902 77.94C148.742 78.0418 148.554 78.0908 148.365 78.08H147.428C147.24 78.0843 147.055 78.032 146.897 77.9299C146.739 77.8278 146.616 77.6806 146.542 77.5075L137.128 53.575H136.918L133.168 76.825C133.112 77.0287 132.993 77.2095 132.828 77.3416C132.663 77.4736 132.461 77.5501 132.25 77.56H128.865C128.712 77.5751 128.558 77.5528 128.415 77.495C128.2 77.4077 128.025 77.2431 127.925 77.0335C127.825 76.824 127.807 76.5846 127.875 76.3625ZM177.833 76.8275L168.783 58.1C168.703 57.9548 168.665 57.7904 168.673 57.625C168.679 57.4593 168.731 57.2985 168.822 57.16C168.913 57.0219 169.039 56.9106 169.188 56.8375C169.337 56.7656 169.502 56.7346 169.667 56.7475H173.1C173.283 56.7644 173.459 56.8254 173.613 56.9251C173.767 57.0247 173.895 57.1602 173.985 57.32L180.435 71.1575H180.5L186.75 57.32C186.849 57.1219 187.007 56.9594 187.203 56.855C187.399 56.7523 187.623 56.7147 187.843 56.7475H190.807C190.977 56.7232 191.151 56.7475 191.307 56.8175C191.461 56.888 191.592 57.0007 191.685 57.1425C191.78 57.2838 191.83 57.45 191.83 57.62C191.833 57.7895 191.787 57.9562 191.697 58.1L175.75 92.535C175.674 92.7106 175.552 92.8619 175.396 92.9722C175.239 93.0825 175.056 93.1475 174.865 93.16H171.75C171.622 93.1717 171.493 93.1569 171.371 93.1164C171.249 93.0759 171.137 93.0107 171.041 92.9248C170.946 92.8389 170.869 92.7341 170.816 92.6171C170.763 92.5002 170.734 92.3735 170.733 92.245C170.732 92.0735 170.778 91.9051 170.865 91.7575L177.833 76.8275ZM190.013 77.56C189.847 77.5729 189.682 77.5419 189.533 77.47C189.384 77.3969 189.258 77.2856 189.167 77.1475C189.077 77.0084 189.026 76.848 189.018 76.6825C189.011 76.5172 189.049 76.3531 189.128 76.2075L205.102 41.2075C205.197 41.0511 205.326 40.9183 205.479 40.8191C205.632 40.7199 205.806 40.657 205.988 40.635H206.5C206.681 40.6578 206.855 40.7212 207.008 40.8203C207.161 40.9194 207.29 41.0517 207.385 41.2075L223.247 76.2075C223.325 76.3536 223.363 76.5173 223.357 76.6825C223.349 76.848 223.298 77.0084 223.208 77.1475C223.117 77.2856 222.991 77.3969 222.842 77.47C222.693 77.5419 222.528 77.5729 222.363 77.56H219.09C218.834 77.5725 218.58 77.5035 218.365 77.3629C218.151 77.2223 217.986 77.0174 217.895 76.7775L214.673 69.6525H197.673C196.628 72.045 195.537 74.385 194.497 76.7775C194.396 77.01 194.229 77.2078 194.017 77.3468C193.804 77.4857 193.556 77.5598 193.303 77.56H190.013ZM199.69 65.1775H212.69L206.288 50.9275H206.038L199.69 65.1775ZM225.36 76.56V42.1325C225.366 41.8712 225.471 41.6219 225.655 41.436C225.838 41.25 226.086 41.1414 226.348 41.1325H229.315C229.578 41.1382 229.829 41.2454 230.016 41.4317C230.202 41.618 230.309 41.8691 230.315 42.1325V76.56C230.309 76.8234 230.202 77.0745 230.016 77.2608C229.829 77.4471 229.578 77.5543 229.315 77.56H226.345C226.084 77.5544 225.835 77.4493 225.649 77.2662C225.463 77.0831 225.355 76.8358 225.345 76.575L225.36 76.56ZM233.75 76.31C233.808 75.0879 234.178 73.9011 234.825 72.8627C235.472 71.8242 236.374 70.9686 237.445 70.3775C236.374 68.9156 235.807 67.1448 235.83 65.3325C235.804 64.1429 236.017 62.9603 236.456 61.8543C236.895 60.7483 237.55 59.7414 238.385 58.893C239.219 58.0446 240.214 57.3719 241.313 56.9145C242.411 56.4571 243.59 56.2244 244.78 56.23H253.883C254.014 56.2251 254.145 56.2472 254.268 56.295C254.389 56.3424 254.5 56.4148 254.592 56.5075C254.685 56.6012 254.757 56.7126 254.805 56.835C254.855 56.9562 254.878 57.0866 254.872 57.2175V58.5175C254.872 58.8825 254.663 59.3525 254.3 59.4025L251.44 60.185C252.203 60.8881 252.8 61.7529 253.185 62.7162C253.571 63.6795 253.737 64.7169 253.67 65.7525C253.668 66.8965 253.435 68.0283 252.985 69.08C252.535 70.1318 251.877 71.082 251.052 71.8735C250.226 72.6651 249.249 73.2818 248.179 73.6867C247.109 74.0917 245.968 74.2764 244.825 74.23C243.283 74.1821 241.757 73.9006 240.3 73.395C239.723 73.5458 239.208 73.8723 238.825 74.3292C238.443 74.7862 238.212 75.3509 238.165 75.945C238.175 76.2546 238.25 76.5587 238.385 76.8375C238.519 77.1169 238.711 77.3651 238.947 77.5661C239.182 77.7672 239.458 77.9167 239.755 78.005C240.052 78.0927 240.363 78.1174 240.67 78.0775H247.75C252.277 78.0775 255.917 80.5225 255.917 85.0475C255.917 89.625 251.757 93.6825 244.837 93.6825C237.502 93.6825 234.535 89.9325 234.535 86.555C234.569 85.5417 234.871 84.5555 235.41 83.6969C235.95 82.8383 236.707 82.1381 237.605 81.6675V81.51C236.485 81.1801 235.502 80.4941 234.806 79.5558C234.111 78.6174 233.74 77.478 233.75 76.31ZM244.885 70.2225C245.494 70.2222 246.097 70.0954 246.655 69.85C247.213 69.6042 247.714 69.2447 248.126 68.7944C248.537 68.3442 248.85 67.8131 249.045 67.235C249.238 66.6567 249.31 66.0447 249.255 65.4375C249.311 64.8296 249.24 64.2167 249.045 63.6381C248.851 63.0594 248.537 62.5279 248.125 62.0775C247.713 61.6261 247.211 61.2661 246.651 61.0207C246.091 60.7752 245.486 60.6498 244.875 60.6525C244.253 60.6412 243.636 60.7588 243.062 60.9981C242.488 61.2373 241.97 61.5929 241.54 62.0425C240.989 62.6022 240.582 63.2877 240.355 64.0399C240.127 64.792 240.087 65.5881 240.236 66.3595C240.386 67.1308 240.721 67.8542 241.212 68.4671C241.704 69.0801 242.337 69.5641 243.057 69.8775C243.631 70.1173 244.248 70.2356 244.87 70.225L244.885 70.2225ZM239.37 85.7225C239.37 87.855 241.62 89.4175 244.78 89.4175C247.94 89.4175 250.712 87.81 250.712 85.31C250.712 84.475 250.192 82.345 246.81 82.345C245.31 82.345 243.74 82.345 242.232 82.45C241.917 82.555 239.367 83.3875 239.367 85.73L239.37 85.7225ZM256.973 67.1C257.063 65.0418 257.756 63.0556 258.966 61.388C260.176 59.7204 261.849 58.445 263.777 57.72C265.706 56.9951 267.805 56.8526 269.813 57.3102C271.822 57.7679 273.652 58.8056 275.076 60.2944C276.5 61.7832 277.455 63.6575 277.823 65.6845C278.191 67.7116 277.956 69.8021 277.146 71.6964C276.336 73.5906 274.987 75.2053 273.267 76.3397C271.548 77.4742 269.533 78.0784 267.473 78.0775C264.623 78.0158 261.915 76.8251 259.943 74.767C257.971 72.7089 256.897 69.9521 256.958 67.1025L256.973 67.1ZM261.602 67.1C261.516 67.9234 261.603 68.7559 261.859 69.5434C262.115 70.3309 262.533 71.0558 263.087 71.6712C263.641 72.2866 264.318 72.7786 265.074 73.1154C265.831 73.4523 266.65 73.6263 267.477 73.6263C268.305 73.6263 269.124 73.4523 269.881 73.1154C270.637 72.7786 271.314 72.2866 271.868 71.6712C272.422 71.0558 272.84 70.3309 273.096 69.5434C273.352 68.7559 273.439 67.9234 273.353 67.1C273.42 66.2877 273.318 65.4704 273.053 64.6996C272.788 63.9287 272.366 63.2212 271.814 62.6216C271.262 62.0221 270.592 61.5435 269.845 61.2162C269.099 60.8888 268.293 60.7198 267.477 60.7198C266.662 60.7198 265.856 60.8888 265.11 61.2162C264.363 61.5435 263.693 62.0221 263.141 62.6216C262.589 63.2212 262.167 63.9287 261.902 64.6996C261.637 65.4704 261.535 66.2877 261.602 67.1Z" fill="url(#paint1_linear_297_2522)"/>
<defs>
<linearGradient id="paint0_linear_297_2522" x1="22.3708" y1="20.165" x2="103.811" y2="101.605" gradientUnits="userSpaceOnUse">
<stop stop-color="#DCFE54"/>
<stop offset="1" stop-color="#01DC94"/>
</linearGradient>
<linearGradient id="paint1_linear_297_2522" x1="127.835" y1="40.6225" x2="161.171" y2="134.963" gradientUnits="userSpaceOnUse">
<stop stop-color="#DCFE54"/>
<stop offset="1" stop-color="#01DC94"/>
</linearGradient>
</defs>
</svg>
