<svg width="150" height="151" viewBox="0 0 150 151" fill="none" xmlns="http://www.w3.org/2000/svg">
<g clip-path="url(#clip0_273_3518)">
<path d="M150 0.55957H0V150.56H150V0.55957Z" fill="#2C3036"/>
<path d="M76.4999 101.649C80.9999 108.961 87.4874 112.989 94.7437 112.989C103.174 112.989 109.875 109.014 114.757 104.525V89.206C112.361 93.1323 105.18 103.239 94.7437 103.239C86.5537 103.239 80.3137 92.1273 79.9012 77.1385L117.375 38.3823H103.8L78.9637 64.0773C76.1587 47.3373 67.0762 36.7285 54.6262 36.7285C48.0524 36.7285 40.8824 40.8535 34.8112 45.5898V58.486C41.2349 52.396 49.2224 46.486 54.6262 46.486C58.9724 46.486 62.5912 48.9348 65.3737 53.7685C68.1562 58.6023 69.8099 65.4798 70.0799 73.2685L31.5862 113.094H45.1462L71.0212 86.3373C71.9999 92.1798 73.8749 97.3698 76.4999 101.649Z" fill="#F77071"/>
</g>
<defs>
<clipPath id="clip0_273_3518">
<path d="M0 16.5596C0 7.72302 7.16344 0.55957 16 0.55957H134C142.837 0.55957 150 7.72301 150 16.5596V134.56C150 143.396 142.837 150.56 134 150.56H16C7.16345 150.56 0 143.396 0 134.56V16.5596Z" fill="white"/>
</clipPath>
</defs>
</svg>
