<svg width="300" height="121" viewBox="0 0 300 121" fill="none" xmlns="http://www.w3.org/2000/svg">
<path d="M1.5 119.06V33.1813L32.6213 2.06H298.5V87.9387L267.379 119.06H1.5Z" fill="#201F21" stroke="#DCFE54" stroke-width="3"/>
<path d="M69.2124 28.06C71.2124 36.31 70.5324 43.56 67.7124 44.2675C64.8924 44.975 60.9999 38.86 58.9999 30.6125C56.9999 22.365 57.6799 15.1125 60.4999 14.4075C63.3199 13.7025 67.2224 19.8225 69.2124 28.06ZM102.087 35.155C97.6774 30.4925 88.9074 31.7575 82.4999 37.9925C76.0924 44.2275 74.4649 53.07 78.8749 57.7425C83.2849 62.415 92.0549 61.1475 98.4674 54.9125C104.88 48.6775 106.5 39.835 102.087 35.165V35.155ZM67.0199 106.718C69.8424 106.015 70.4149 98.3475 68.3024 89.595C66.1899 80.8425 62.1874 74.31 59.3699 75.0125C56.5524 75.715 55.9724 83.3825 58.0849 92.135C60.1974 100.888 64.1974 107.418 67.0199 106.718ZM38.2699 39.44C46.4074 41.84 52.3549 46.05 51.5524 48.8475C50.7499 51.645 43.4999 51.96 35.3574 49.56C27.2149 47.16 21.2724 42.95 22.0724 40.1525C22.8724 37.355 30.1249 37.0375 38.2624 39.4375L38.2699 39.44ZM91.0974 70.99C99.7324 73.54 106.085 77.87 105.282 80.6625C104.48 83.455 96.8249 83.6625 88.1874 81.11C79.5499 78.5575 73.1874 74.23 73.9999 71.4375C74.8124 68.645 82.4474 68.445 91.0899 70.99H91.0974ZM47.4199 65.13C45.3999 63.0375 38.7799 66.08 32.6324 71.93C26.4849 77.78 23.1324 84.215 25.1549 86.305C27.1774 88.395 33.7924 85.355 39.9424 79.505C46.0924 73.655 49.4424 67.2225 47.4174 65.13H47.4199Z" fill="url(#paint0_linear_297_2515)"/>
<path d="M145.468 40.31V38.5225H138.093V86.2325H145.468V73.375C145.468 71.985 145.468 70.8575 145.333 69.3325H145.468C148.148 73.7075 152.718 76.025 158.073 76.025C167.125 76.025 175.033 69.1975 175.033 56.54C175.033 44.15 167.125 37.4575 158.073 37.4575C152.91 37.4575 148.35 39.7075 145.468 44.15H145.333C145.442 42.8731 145.488 41.5915 145.468 40.31V40.31ZM156.193 69.735C149.355 69.6675 145.398 63.9025 145.398 56.485C145.398 49.4625 149.355 43.83 156.193 43.76C162.898 43.6975 167.325 48.865 167.325 56.5525C167.325 64.43 162.898 69.81 156.193 69.73V69.735ZM213.75 53.43C213.75 44.2825 206.38 37.4575 196.323 37.4575C185.595 37.4575 178.153 44.68 178.153 56.74C178.153 68.3375 185.46 76.025 196.323 76.025C205.24 76.025 211.88 70.8575 213.42 63.775H205.385C204.11 67.3525 200.635 69.7375 196.333 69.7375C190.833 69.7375 186.81 65.8275 185.94 59.3325H213.763V53.43H213.75ZM196.32 43.75C201.75 43.75 205.505 47.4625 206.308 52.83H186C186.943 47.66 190.765 43.75 196.33 43.75H196.32ZM219.173 74.9675H226.548V54.4225C226.548 47.395 230.438 43.75 236.473 43.75H240.425V37.4575H237.275C231.848 37.4575 228.493 41.035 226.548 44.15H226.415V38.5175H219.165V74.965L219.173 74.9675ZM274.905 68.6025C273.905 68.6025 273.43 68.0075 273.43 66.815V50.78C273.43 43.09 269.68 37.46 258.613 37.46C247.883 37.46 242.99 42.76 242.453 50.315H249.83C250.298 46.2075 253.58 43.7525 258.613 43.7525C262.903 43.7525 265.863 45.61 265.863 48.5275C265.863 50.9125 264.188 52.3675 258.69 52.3675H255.75C246.97 52.3675 241.068 55.8825 241.068 63.9C241.068 72.3175 247.305 76.15 254.613 76.15C260.043 76.15 264.668 73.7625 266.478 68.6625C266.683 72.375 269.16 74.9575 273.855 74.9575H278V68.605H274.915L274.905 68.6025ZM266.055 58C266.055 66.215 261.555 69.7975 255.805 69.7975C250.775 69.7975 248.763 66.88 248.763 63.8975C248.763 61.0475 250.513 58.73 255.873 58.73H256.945C262.105 58.73 265.323 56.94 265.998 53.8275H266.063L266.055 58Z" fill="url(#paint1_linear_297_2515)"/>
<defs>
<linearGradient id="paint0_linear_297_2515" x1="22.0002" y1="14.3522" x2="113.926" y2="97.2605" gradientUnits="userSpaceOnUse">
<stop stop-color="#DCFE54"/>
<stop offset="1" stop-color="#01DC94"/>
</linearGradient>
<linearGradient id="paint1_linear_297_2515" x1="138.093" y1="37.4575" x2="168.415" y2="124.436" gradientUnits="userSpaceOnUse">
<stop stop-color="#DCFE54"/>
<stop offset="1" stop-color="#01DC94"/>
</linearGradient>
</defs>
</svg>
