<svg width="150" height="151" viewBox="0 0 150 151" fill="none" xmlns="http://www.w3.org/2000/svg">
<g clip-path="url(#clip0_273_3523)">
<path d="M150 0.55957H0V150.56H150V0.55957Z" fill="black"/>
<path d="M87.3975 83.2662C87.3975 83.2662 106.054 80.3487 106.054 55.7075C106.054 34.295 88.755 28.835 73.9463 28.835H39.8625V123.624H55.3088V84.6237H70.575L91.74 123.624H110.138L87.3975 83.2662ZM77.2725 69.6912H74.505L55.2938 69.7925V43.9625H77.1863C80.4365 43.9623 83.5585 45.2309 85.8874 47.4981C88.2162 49.7653 89.5681 52.8521 89.655 56.1012L89.6775 56.885C89.7215 58.5437 89.4341 60.1945 88.8322 61.7408C88.2303 63.2871 87.326 64.6978 86.1722 65.8903C85.0185 67.0829 83.6384 68.0333 82.1128 68.6859C80.5873 69.3386 78.9468 69.6803 77.2875 69.6912H77.2725Z" fill="url(#paint0_radial_273_3523)"/>
</g>
<defs>
<radialGradient id="paint0_radial_273_3523" cx="0" cy="0" r="1" gradientUnits="userSpaceOnUse" gradientTransform="translate(110.138 123.432) scale(116.123)">
<stop stop-color="#7B36CC"/>
<stop offset="1" stop-color="#09E7F3"/>
</radialGradient>
<clipPath id="clip0_273_3523">
<path d="M0 16.5596C0 7.72302 7.16344 0.55957 16 0.55957H134C142.837 0.55957 150 7.72301 150 16.5596V134.56C150 143.396 142.837 150.56 134 150.56H16C7.16345 150.56 0 143.396 0 134.56V16.5596Z" fill="white"/>
</clipPath>
</defs>
</svg>
