<svg width="60" height="61" viewBox="0 0 60 61" fill="none" xmlns="http://www.w3.org/2000/svg">
<g clip-path="url(#clip0_140_467)">
<path d="M59.5 30.78C59.5 47.0724 46.2924 60.28 30 60.28C13.7076 60.28 0.5 47.0724 0.5 30.78C0.5 14.4876 13.7076 1.28 30 1.28C46.2924 1.28 59.5 14.4876 59.5 30.78Z" stroke="#31D8EE"/>
<path d="M30 52.7136C42.1136 52.7136 51.9336 42.8936 51.9336 30.78C51.9336 18.6664 42.1136 8.84639 30 8.84639C17.8864 8.84639 8.06641 18.6664 8.06641 30.78C8.06641 42.8936 17.8864 52.7136 30 52.7136Z" fill="#006883"/>
<path d="M49.8328 39.1707H46.364L44.107 30.781L39.2508 39.1707H35.375L42.8675 26.1837L41.665 21.6697L31.5548 39.18H27.679L40.4903 16.98H43.885L45.3743 22.493H48.88L46.4843 26.6555" fill="white"/>
<path d="M42.7675 39.1504C35.2929 39.274 27.9468 35.9842 22.7898 30.6261C18.5966 26.2857 16.0138 20.5519 15.1982 14.5925C12.9482 16.6456 11.1516 19.1459 9.92352 21.9334C8.69543 24.7208 8.06289 27.734 8.06639 30.78C8.06639 42.8942 17.8839 52.7136 30 52.7136C39.5192 52.7136 47.6205 46.6494 50.6554 38.1762C48.0491 38.6878 45.4361 39.2334 42.7675 39.1504Z" fill="#31D8EE"/>
</g>
<defs>
<clipPath id="clip0_140_467">
<rect width="60" height="60" fill="white" transform="translate(0 0.779999)"/>
</clipPath>
</defs>
</svg>
