<svg width="48" height="49" viewBox="0 0 48 49" fill="none" xmlns="http://www.w3.org/2000/svg">
<circle cx="24" cy="24.9285" r="24" fill="#009ADE"/>
<g clip-path="url(#clip0_49_232)">
<path d="M37.6264 16.5031C36.6212 16.9492 35.5539 17.2429 34.4584 17.3728C35.6104 16.6838 36.4744 15.5996 36.881 14.3177C35.7967 14.9615 34.6165 15.4132 33.3798 15.6561C31.296 13.4368 27.8005 13.3295 25.5812 15.4132C24.4744 16.4523 23.8419 17.9092 23.8419 19.4283C23.8419 19.8518 23.8927 20.2754 23.9831 20.6876C19.5501 20.473 15.4221 18.3892 12.6099 14.9558C11.153 17.4688 11.8984 20.6763 14.304 22.297C13.4287 22.2688 12.5704 22.0316 11.8024 21.6081V21.6815C11.8024 24.3074 13.6546 26.5662 16.2297 27.0857C15.4165 27.3059 14.5638 27.3342 13.7393 27.1817C14.4621 29.4292 16.529 30.9709 18.8894 31.0104C16.9355 32.5408 14.5243 33.3652 12.0452 33.3596C11.6047 33.3596 11.1643 33.3314 10.7294 33.2805C13.2537 34.9069 16.1958 35.7709 19.2 35.7596C29.3647 35.7596 34.8932 27.3568 34.8932 20.0721V19.3549C35.9661 18.5756 36.8923 17.6099 37.6264 16.5031Z" fill="white"/>
</g>
<defs>
<clipPath id="clip0_49_232">
<rect width="26.8969" height="21.8428" fill="white" transform="translate(10.7294 13.9167)"/>
</clipPath>
</defs>
</svg>
